<?xml version="1.0" encoding="UTF-8" standalone="no"?>
<!-- Generator: Adobe Illustrator 18.1.1, SVG Export Plug-In . SVG Version: 6.00 Build 0)  -->

<svg
   xmlns:dc="http://purl.org/dc/elements/1.1/"
   xmlns:cc="http://creativecommons.org/ns#"
   xmlns:rdf="http://www.w3.org/1999/02/22-rdf-syntax-ns#"
   xmlns:svg="http://www.w3.org/2000/svg"
   xmlns="http://www.w3.org/2000/svg"
   xmlns:sodipodi="http://sodipodi.sourceforge.net/DTD/sodipodi-0.dtd"
   xmlns:inkscape="http://www.inkscape.org/namespaces/inkscape"
   version="1.1"
   id="Layer_1"
   x="0px"
   y="0px"
   viewBox="114.9 364.5 425.1 114.9"
   enable-background="new 114.9 364.5 419.1 114.9"
   xml:space="preserve"
   sodipodi:docname="jovix-logo2.svg"
   width="425.10001"
   height="114.9"
   inkscape:version="0.92.3 (2405546, 2018-03-11)"><metadata
   id="metadata98"><rdf:RDF><cc:Work
       rdf:about=""><dc:format>image/svg+xml</dc:format><dc:type
         rdf:resource="http://purl.org/dc/dcmitype/StillImage" /><dc:title></dc:title></cc:Work></rdf:RDF></metadata><defs
   id="defs96" /><sodipodi:namedview
   pagecolor="#ffffff"
   bordercolor="#666666"
   borderopacity="1"
   objecttolerance="10"
   gridtolerance="10"
   guidetolerance="10"
   inkscape:pageopacity="0"
   inkscape:pageshadow="2"
   inkscape:window-width="1920"
   inkscape:window-height="1017"
   id="namedview94"
   showgrid="false"
   inkscape:zoom="3.7007873"
   inkscape:cx="287.71533"
   inkscape:cy="57.450001"
   inkscape:window-x="1912"
   inkscape:window-y="4"
   inkscape:window-maximized="1"
   inkscape:current-layer="Layer_1" />
<g
   id="g69"
   style="display:inline">
	<path
   d="m 178,380.7 c -21.6,-4.2 -42.5,10 -46.7,31.6 -1.9,10.2 0.2,20.2 5.3,28.4 l 3.9,-2.6 c -4.3,-7.2 -6.2,-15.9 -4.5,-24.9 3.7,-19.1 22.1,-31.5 41.2,-27.9 8.9,1.7 16.4,6.7 21.4,13.4 l 3.9,-2.6 c -5.8,-7.7 -14.3,-13.5 -24.5,-15.4 z"
   id="path55"
   inkscape:connector-curvature="0"
   style="fill:#bcbec0" />
	<path
   d="m 208.9,391.8 c -6.9,-9.4 -17.1,-16.4 -29.4,-18.8 -25.8,-5 -50.9,12 -55.9,37.8 -2.4,12.3 0.3,24.4 6.5,34.3 l 3.7,-2.5 c -5.6,-9 -8,-19.9 -5.8,-31 4.6,-23.4 27.3,-38.8 50.7,-34.3 11.1,2.2 20.4,8.4 26.6,16.9 z"
   id="path57"
   inkscape:connector-curvature="0"
   style="fill:#bcbec0" />
	<path
   d="m 181.7,423.4 c -6.6,-1.3 -13,3 -14.2,9.6 -1.3,6.6 3,13 9.6,14.2 6.6,1.3 13,-3 14.2,-9.6 1.3,-6.6 -3,-12.9 -9.6,-14.2 z"
   id="path59"
   inkscape:connector-curvature="0"
   style="fill:#e24301" />
	<g
   id="g63">
		<path
   d="m 181,365.2 c -30.1,-5.8 -59.5,13.9 -65.1,44 -2.6,13.6 0.1,28.8 7.6,40.3 l 4,-2.7 c -6.6,-9.2 -9.3,-25.3 -7.2,-36.8 5.3,-27.7 32.2,-45.8 59.9,-40.5 13.2,2.5 24.3,10 31.6,20.2 l 3.8,-2.5 c -8.1,-11 -20.2,-19.2 -34.6,-22 z"
   id="path61"
   inkscape:connector-curvature="0"
   style="fill:#bcbec0" />
	</g>
	<path
   stroke-miterlimit="10"
   d="m 134.1,447.9 c 13.3,19.7 41,24.2 61.9,10"
   id="path65"
   inkscape:connector-curvature="0"
   style="fill:none;stroke:#e24301;stroke-width:26;stroke-miterlimit:10" />
	<path
   stroke-miterlimit="10"
   d="M 209.7,396.8 C 223,416.5 216.9,443.9 196,458"
   id="path67"
   inkscape:connector-curvature="0"
   style="fill:none;stroke:#e24301;stroke-width:26;stroke-miterlimit:10" />
</g>
<g
   id="g137"
   style="display:inline"
   transform="translate(70.63829,-3.95638)"><path
     style="fill:#bcbec0"
     inkscape:connector-curvature="0"
     id="path89-0"
     d="m 379.66171,377.35638 c 0,4.1 -3.3,7.4 -7.4,7.4 -4.1,0 -7.4,-3.3 -7.4,-7.4 0,-4.1 3.3,-7.4 7.4,-7.4 4.1,0.1 7.4,3.3 7.4,7.4 z" /><path
     style="fill:#bcbec0"
     inkscape:connector-curvature="0"
     id="path83-4"
     d="m 467.86171,390.45638 c -0.1,-0.9 -0.1,-2 -0.1,-2.9 v 0 c -0.2,0.8 -0.5,1.5 -0.8,2.5 l -1.2,3.2 h -0.6 l -1.1,-3.1 c -0.3,-0.9 -0.5,-1.8 -0.8,-2.5 v 0 c 0,0.9 -0.1,1.9 -0.2,2.9 l -0.2,2.8 h -0.8 l 0.5,-6.6 h 1.1 l 1.1,3.2 c 0.2,0.8 0.5,1.5 0.6,2.2 v 0 c 0.2,-0.7 0.4,-1.4 0.7,-2.2 l 1.2,-3.2 h 1.1 l 0.4,6.6 h -0.8 z" /><g
     id="g140" /><path
     d="m 458.86171,387.55638 h -2 v -0.7 h 4.9 v 0.7 h -2 v 5.8 h -0.8 v -5.8 z"
     id="path81-6"
     inkscape:connector-curvature="0"
     style="fill:#bcbec0" /><path
     d="m 356.96171,401.75638 2.8,0.1 c 3.2,0.1 3.9,0.8 4.1,0.9 0.2,0.2 0.8,1 0.8,4.3 v 43.7 c 0,3.2 -0.7,4.2 -0.8,4.3 -0.2,0.2 -0.9,0.8 -4,0.9 h -2.9 v 8.2 h 30.4 v -8.3 l -2.8,-0.1 c -3.6,-0.2 -4.9,-1.5 -4.9,-5.1 v -43.7 c 0,-3.2 0.6,-4.1 0.8,-4.3 0.1,-0.1 0.8,-0.8 4.1,-0.9 l 2.8,-0.1 v -8.1 h -30.4 z"
     id="path79-3"
     inkscape:connector-curvature="0"
     style="fill:#bcbec0" /><path
     d="m 455.26171,457.05638 c -1.4,-0.2 -2.5,-0.5 -3.3,-1.1 -2.3,-1.2 -4.6,-3.6 -6.6,-6.9 l -15.7,-25.7 8.8,-12 c 4.9,-6.7 9.5,-10.4 13.6,-11 l 1.9,-0.2 v -6.6 h -29.1 v 6.9 h 2.2 c 5.6,0.1 5.6,2.1 5.6,2.9 0,1.4 -0.9,5 -6.7,13.6 l -9.9,-16.5 1.4,-0.1 v -6.8 h -24.5 v 6.7 l 2,0.2 c 3.4,0.3 7.3,4 11.4,10.8 l 10.7,17.9 -11.8,16.5 c -5.1,7.2 -9.8,11 -13.6,11.4 l -2,0.2 v 6.7 h 28.9 v -6.9 h -2.2 c -4.8,-0.1 -4.8,-2 -4.8,-3 0,-2.6 1.7,-7.9 9.3,-18.3 l 12.8,21.3 -1.6,0.1 v 6.8 h 25 v -6.6 z"
     id="path77-7"
     inkscape:connector-curvature="0"
     style="fill:#bcbec0" /><path
     d="m 284.06171,406.75638 c -6.6,-9.6 -16,-14.5 -27.8,-14.5 -10.2,0 -19.2,3.9 -26.7,11.6 -7.5,7.7 -11.4,16.8 -11.4,27 0,9 3.2,16.8 9.4,23 6.2,6.2 13.9,9.3 23,9.3 6.2,0 12.1,-1.5 17.7,-4.3 6.2,-3.2 11.3,-7.9 15.2,-14.1 3.9,-6.3 5.9,-13 5.9,-19.9 -0.1,-7.1 -1.8,-13.2 -5.3,-18.1 z m -33.9,-4.4 c 3.5,0 7.4,1.2 11.6,3.6 4.3,2.5 7.7,6.4 10.2,11.6 2.3,4.9 3.5,10.1 3.5,15.7 0,5.5 -1.6,10.2 -4.9,14 -3.3,3.9 -7.7,5.9 -12.9,5.9 -7.5,0 -13.8,-3.2 -18.7,-9.5 -4.6,-6 -7,-13 -7,-21 0,-5.8 1.6,-10.7 4.8,-14.5 3.3,-3.8 7.8,-5.8 13.4,-5.8 z"
     id="path73-3"
     inkscape:connector-curvature="0"
     style="fill:#bcbec0" /><path
     d="m 326.66171,393.55638 v 7.9 h 2.7 c 4.6,0.1 4.9,1.8 4.9,3.8 0,3.9 -1.3,9.1 -3.9,15.7 l -7.2,18.2 -13.1,-37.6 h 1.5 v -7.9 h -22.9 v 7.9 l 2.7,0.1 c 2.1,0 4.5,3.5 6.6,9.4 l 18.2,52.9 h 6.7 l 20.6,-51.9 c 3.7,-9.3 6.5,-10.3 7.6,-10.3 h 2.8 v -8 z"
     id="path75-4"
     inkscape:connector-curvature="0"
     style="fill:#bcbec0" /><path
     d="m 211.26171,435.05638 v -51.2 c 0,-3.9 0.9,-5.3 1.2,-5.6 0.3,-0.4 1.5,-1.2 5.4,-1.3 l 2.7,-0.1 v -8.5 h -35.4 v 8.5 l 2.7,0.1 c 4,0.1 5.2,1 5.4,1.2 0.3,0.4 1.2,1.6 1.2,5.6 v 65.4 c 0,8 -1.2,17.5 -6.5,17.5 -1.2,0 -2.9,-0.4 -4.4,-3.2 -1.1,-1.9 -1.8,-4.4 -2,-7.3 l -0.2,-2.5 h -9.6 v 24.2 l 1.9,0.6 c 2.6,0.8 5.1,1.2 7.3,1.2 5.3,0 10.3,-2.5 15.1,-7.3 10.1,-10.4 15.2,-23 15.2,-37.3 z"
     id="path71-9"
     inkscape:connector-curvature="0"
     style="fill:#bcbec0" /></g><g
   id="g91"
   style="display:inline">
	<g
   id="g87">
		
		
		
		
		
		<g
   id="g85">
			
			
		</g>
	</g>
	
</g>
</svg>